<?xml version="1.0" encoding="utf-8" ?>
<svg xmlns="http://www.w3.org/2000/svg" xmlns:xlink="http://www.w3.org/1999/xlink" width="512" height="512">
	<path fill="white" transform="scale(0.666667 0.666667)" d="M380.84 17.7812L388.753 17.6154C434.863 17.6602 483.313 27.1612 524.051 49.3125C539.181 57.5396 553.349 67.8105 567.75 77.2394C596.779 96.2458 624.437 117.009 648.991 141.619C656.784 149.429 663.838 158.068 670.764 166.641C679.586 177.564 687.914 188.692 695.4 200.598C725.059 247.767 743.639 302.596 748.128 358.161C748.971 368.606 748.495 379.383 748.487 389.86C748.473 409.222 747.754 428.158 744.98 447.358C742.999 461.073 739.506 474.952 735.746 488.281C728.6 513.612 719.219 538.256 706.642 561.414C699.312 574.911 690.564 587.709 681.365 599.987C671.051 613.753 660.077 627.064 647.84 639.188C603.095 683.515 546.53 715.101 486.375 733.084C465.224 739.407 443.444 744.202 421.461 746.424C410.507 747.531 399.316 747.565 388.312 747.546C344.76 747.872 300.242 740.73 259.374 725.478C246.015 720.492 233.052 714.432 220.286 708.103C202.924 699.496 186.114 689.924 170.206 678.833C157.123 669.711 144.72 659.615 132.648 649.211C115.466 634.403 99.567 618.108 85.8179 600.041C47.318 549.45 24.3817 486.132 20.0153 422.812L19.3967 394.18L19.8769 363.896C20.4365 354.153 21.7297 344.195 23.2098 334.556C34.228 262.803 67.7295 192.588 115.339 137.874C165.94 79.7202 234.642 38.5604 310.688 24.6082C326.862 21.6406 343.471 20.5348 359.861 19.436L380.84 17.7812ZM355.345 28.3125C336.148 29.7825 316.997 32.1666 298.232 36.5625C228.155 52.9786 164.318 93.9129 117.843 148.567C111.833 155.635 106.298 163.474 100.823 170.968C79.0903 200.712 60.7776 233.48 48.9375 268.463C42.0548 288.799 37.1458 309.739 33.9754 330.962L31.5233 348.75L31.0814 356.069C28.9553 379.616 28.4925 403.583 30.575 427.166C32.007 443.384 34.2238 459.265 37.7271 475.18C47.6215 520.13 68.3948 563.72 97.4861 599.409C112.793 618.188 130.606 635.075 149.215 650.535C180.395 676.44 214.645 696.572 252.14 711.918C260.04 715.151 267.859 718.48 276 721.087C294.388 726.978 313.364 730.912 332.388 734.061C359.303 738.517 387.339 740.287 414.551 737.681C430.617 736.142 446.534 733.75 462.249 730.033C491.922 723.016 520.349 711.963 547.585 698.373L563.719 690.293C591.436 674.963 616.922 655.544 639.568 633.446C648.307 624.919 656.797 616.106 664.554 606.662C688.143 577.941 707.124 545.456 719.541 510.375C723.445 499.346 726.425 488.107 729.196 476.754C732.185 464.51 734.809 452.116 736.435 439.608C738.612 422.868 739.324 405.672 739.324 388.799C739.324 375.354 739.284 361.569 737.917 348.192C728.828 259.245 682.219 177.709 612.949 121.703L569.872 89.2159C572.369 92.5049 574.849 95.8396 576.61 99.5969C577.973 102.506 578.832 105.783 579.766 108.856C583.661 121.681 585.585 135.922 583.817 149.272C581.15 169.403 572.666 189.964 556.068 202.552C544.472 211.346 530.033 218.296 515.082 216.155C512.279 215.754 509.567 214.898 506.877 214.042C501.803 221.341 498.933 230.183 493.122 236.932C491.498 238.817 489.505 240.282 487.517 241.754L495.728 223.721C496.84 221.213 498.697 218.067 499.111 215.408C481.328 215.392 463.239 213.39 445.867 209.612C442.885 208.964 439.921 208.201 437.033 207.214C434.872 206.475 431.363 204.632 429.176 204.526C428.183 204.478 426.414 205.143 425.398 205.358L417.759 206.886C414.615 207.615 409.023 209.628 405.984 208.27C405.173 207.161 405.016 206.683 404.926 205.312C405.486 203.793 406.135 203.188 407.592 202.533C411.643 200.712 417.024 200.53 421.416 200.081C410.607 196.407 400.161 192.319 389.824 187.47L371.641 178.64C359.572 172.384 346.135 164.695 332.625 162.364C329.885 161.892 327.148 162.026 324.382 162.129C320.734 169.415 316.813 177.345 314.326 185.088L314.724 184.996C320.985 183.673 328.405 187.471 334.287 189.34C341.987 191.786 351.547 194.012 358.25 198.606C359.485 199.452 360.808 201.132 361.153 202.592C361.381 203.558 361.085 204.413 360.761 205.312C359.978 206.048 359.604 206.733 358.426 206.638C357.263 206.545 355.996 205.649 354.981 205.078C352.829 203.866 350.707 202.616 348.441 201.623C343.788 199.584 338.622 197.955 333.804 196.318L325.688 193.498C322.189 192.37 316.095 191.642 313.885 188.606L313.422 187.911C312.479 188.26 311.732 190.09 311.302 191.012L295.86 223.964C292.699 230.393 289.615 236.924 285.619 242.889C282.608 247.383 278.741 250.864 275.566 255.136L293.517 257.992C294.149 254.841 294.646 251.575 295.824 248.574C298.698 241.258 304.523 235.597 310.975 231.327C322.425 223.749 337.165 222.107 350.411 224.862C362.456 227.366 372.198 233.686 378.936 244.013L384.022 252.169L384.58 251.681C386.399 250.147 388.653 248.867 390.938 248.229L391.428 248.088C396.079 246.82 400.722 247.987 404.773 250.392L408.578 252.928C413.2 242.538 419.461 235.295 430.254 231.119C442.381 226.427 459.51 227.7 471.228 233.018C474.263 234.395 476.996 236.077 479.67 238.046C483.24 240.676 486.366 244.028 489.291 247.339L489.64 247.779L494.454 255.264L494.893 254.997C498.623 252.842 503.416 253.296 507.429 254.402C509.881 255.078 512.119 256.285 514.135 257.812L514.605 258.161C515.287 258.676 515.904 259.224 516.508 259.829C518.574 261.899 519.886 264.259 521.026 266.922C523.28 272.188 524.417 277.965 526.147 283.415L537.196 313.894C541.02 323.093 546.101 332.011 551.595 340.313C563.271 357.958 576.171 373.646 578.974 395.438C581.339 413.817 572.856 435.671 561.675 449.946C553.228 460.731 541.836 466.941 528.298 468.527C517.441 469.8 506.333 468.976 495.434 468.744C481.605 468.45 467.127 469.774 453.848 473.738C449.008 475.183 442.706 477.519 439.539 481.688L437.725 484.819L447.562 490.111C456.318 495.265 464.779 500.774 474.306 504.455C487.468 509.541 501.263 512.651 514.529 517.4C527.385 522.002 540.612 528.309 551.175 537.093C565.76 549.221 575.554 565.65 580.359 583.939C581.63 588.776 582.692 593.809 583.294 598.778C584.738 610.679 584.859 622.548 585.458 634.5L586.316 650.221C586.422 653.023 586.741 656.189 585.833 658.875C585.023 659.707 584.693 660.113 583.5 660.325C582.611 659.523 582.426 658.551 582.204 657.424C581.18 652.224 581.153 646.207 580.897 640.875C580.315 628.728 580.402 616.532 579.014 604.425C576.518 582.638 567.264 561.419 550.937 546.499C542.591 538.873 533.52 533.129 523.418 528.116C507.77 520.349 490.461 517.042 474.407 510.346L459.487 503.262C452.606 499.616 446.236 495.372 439.032 492.328C436.45 491.236 433.935 489.991 431.051 490.16L430.571 490.214C429.943 491.261 430.184 492.906 430.453 494.053L436.475 515.812L449.161 574.355C452.11 588.734 455.506 603.186 457.365 617.753C460.206 640.019 460.719 662.238 460.764 684.653C460.779 691.889 460.851 698.656 460.304 705.887C460.02 709.637 459.803 713.869 458.167 717.324L457.779 715.066C456.751 710.061 457.618 703.932 457.358 698.756C456.282 677.325 456.649 655.546 454.337 634.206C450.772 601.312 441.774 569.369 435.928 536.888L435.694 537.186C429.402 545.052 418.535 549.279 408.74 550.278C403.795 550.782 397.818 550.796 392.96 549.802C382.78 547.721 373.282 542.927 364.125 538.187C355.15 533.542 346.189 528.609 338.438 522.061L334.227 518.263C335.311 527.514 333.18 537.271 332.04 546.478L328.412 581.115L326.432 629.554L324.753 670.875L324.708 697.68L324.487 712.687C321.583 708.38 320.582 703.121 320.075 698.018C319.549 692.718 319.83 687.181 319.828 681.855L321.299 635.1L322.72 596.843C322.871 593.065 322.672 589.231 322.956 585.467C325.075 557.37 329.938 529.74 329.918 501.478C329.913 494.399 329.915 487.428 329.106 480.381C322.946 482.781 317.185 486.079 311.314 489.111L288.124 500.911C258.779 515.911 228.704 532.376 207.028 557.812C193.895 573.225 184.529 590.898 176.429 609.336L168.299 629.686C167.1 632.944 166.243 636.457 164.702 639.572C164.168 640.652 163.779 641.324 162.75 641.959C161.839 641.068 161.703 639.898 161.678 638.643C161.626 636.018 162.463 633.462 163.138 630.956C164.335 626.514 165.63 622.175 167.233 617.859C174.64 597.917 184.471 577.316 197.246 560.25C202.356 553.424 208.199 547.131 214.312 541.2C221.666 534.065 230.065 527.408 238.585 521.712L257.021 510.304C262.376 506.971 267.889 503.051 273.522 500.29C263.825 490.315 247.716 487.652 234.329 487.497C228.612 487.431 222.899 488.057 217.216 488.569C205.725 489.604 194.141 491.649 182.625 491.999C168.66 492.424 155.188 490.182 142.372 484.5C133.585 480.604 125.161 475.299 118.401 468.421C115.362 465.329 112.299 461.702 110.203 457.9C106.121 450.496 104.003 442.411 99.5155 435.134C97.5 431.866 95.2091 428.569 92.8125 425.562C91.3791 423.764 89.1372 421.819 88.0686 419.846L88.7774 420.038C97.3951 422.321 107.785 419.584 115.328 415.173C127.846 407.851 136.899 396.953 140.567 382.819C144.789 366.553 140.191 346.738 131.883 332.538C136.554 332.927 140.798 332.616 145.382 331.729C165.7 327.797 183.355 310.674 194.352 293.957C206.543 275.425 208.627 253.287 210.511 231.8L214.794 185.062C216.901 166.94 219.727 147.666 227.149 130.867C232.704 118.291 241.438 106.597 252.033 97.8392C260.39 90.9315 270.127 84.3437 280.898 82.0934C289.089 80.3823 298.369 81.3717 305.479 86.061C308.188 87.8476 311.282 90.4842 313.426 92.9131C313.277 79.4946 318.055 66.0336 325.484 54.9375C333.002 43.7081 343.765 33.944 356.253 28.5189L356.398 28.2904L355.345 28.3125ZM250.781 252.076C248.541 252.611 246.785 253.263 244.866 254.604C241.667 256.841 239.34 260.638 238.641 264.469C236.618 275.541 240.73 286.995 247.199 295.888C252.915 303.746 262.008 310.94 271.84 312.443C274.079 312.785 276.341 312.801 278.597 312.641C280.231 312.526 284.065 311.513 285.33 312.188C283.416 315.176 281.524 314.994 278.686 316.444L279.139 316.985C283.089 321.791 285.301 327.268 287.966 332.812C290.647 338.389 293.513 344.028 296.777 349.285C312.954 375.339 335.146 395.121 362.817 408.299C371.599 412.482 381.438 416.311 391.148 417.402C408.875 419.394 425.095 411.518 438.618 400.647C456.807 386.025 469.453 366.596 476.347 344.329C479.089 335.474 480.902 326.504 483.118 317.526C485.231 318.497 488.871 320.654 491.256 319.756C493.479 318.918 495.21 317.199 496.876 315.564C501.299 311.223 504.913 306.3 508.61 301.348C514.192 292.412 519.967 281.657 517.359 270.741C516.323 266.405 513.614 262.679 509.831 260.355C507.415 258.871 504.697 258.366 501.938 257.984L501.279 257.883C499.491 257.619 497.891 257.755 496.114 257.951C499.92 269.913 499.128 282.089 493.271 293.266L492.273 295.06C486.217 305.699 476.714 313.531 464.846 316.851C456.399 319.215 447.101 318.841 438.677 316.633C425.498 313.178 414.973 302.912 408.136 291.461C406.105 288.06 404.117 284.297 402.682 280.606C401.612 277.855 400.757 274.65 399.336 272.078C398.995 271.46 398.445 270.779 397.755 270.539C396.688 270.168 394.674 270.124 393.662 270.649C390.651 274.435 389.742 280.785 387.901 285.308C381.719 300.492 367.844 315.228 350.932 317.453C338.2 319.129 325.393 315.49 315.358 307.487C304.39 298.741 296.151 286.435 294.189 272.333C294.089 271.617 293.397 266.088 293.33 266.041C292.982 265.799 288.008 266.078 287.166 266.085C286.553 267.277 286.511 268.859 286.271 270.18C285.579 273.996 284.507 278.664 281.875 281.629C281.199 282.391 280.036 283.554 279 283.793C278.394 283.934 278.255 283.903 277.688 283.895C275.639 281.398 275.893 276.9 275.071 273.815C272.585 264.479 265.716 253.364 255.269 252.085C253.8 251.905 252.257 252.015 250.781 252.076ZM337.712 229.283C325.602 230.247 314.608 234.314 306.536 243.696C302.908 247.914 299.551 254.622 299.414 260.245L299.812 261.031C303.685 261.871 308.607 260.975 312.586 260.85L338.641 260.245C343.839 260.21 349.078 259.981 354.236 260.716C352.391 262.157 350.953 263.238 348.602 263.742C342.865 264.97 336.234 264.161 330.361 264.43L306.798 265.553C304.367 265.656 301.926 266.077 299.499 266.087C300.728 276.481 303.255 285.624 310.162 293.753C317.753 303.233 328.522 310.856 340.879 312.128C343.978 312.447 347.312 312.449 350.361 311.784C362.165 309.207 370.854 302.336 377.438 292.269C382.296 284.84 385.48 273.039 383.503 264.213C380.886 252.527 372.742 241.481 362.639 235.129C356.353 231.178 349.922 229.245 342.521 229.201C341.001 229.192 339.189 229.016 337.712 229.283ZM443.828 234.12C434.627 234.744 425.614 238.632 419.478 245.608C412.422 253.63 410.091 265.612 410.671 276C411.196 285.399 417.6 296.296 424.601 302.348C433.164 309.751 443.951 314.057 455.364 313.124L460.782 312.179C471.7 309.176 481.591 302.562 487.277 292.52C489.819 288.029 492.008 283.003 492.795 277.875C493.081 276.008 493.527 274.085 493.545 272.191C493.606 265.651 490.815 259.337 487.095 254.121C479.751 243.824 469.141 236.676 456.603 234.644C452.834 234.033 447.632 233.49 443.828 234.12ZM345.364 432.253C345.989 442.285 345.867 452.331 342.422 461.919C340.845 466.311 338.79 470.371 335.826 473.987C335.531 474.347 333.151 477.204 333.164 477.375C333.18 477.566 333.44 477.64 333.577 477.772L342.938 486.717C353.342 495.94 367.448 502.182 380.506 506.51C386.211 508.401 392.364 510.331 398.438 509.967L401.237 509.6C403.56 508.926 405.573 508.037 407.723 506.932L407.403 506.739C404.154 504.723 402.044 502.654 401.105 498.846C400.622 496.883 400.795 494.655 400.802 492.638L401.579 477.562L403.276 454.125L403.809 446.336C403.858 445.448 404.105 444.154 403.74 443.361C400.989 444.123 398.13 445.117 395.314 445.568C380.713 447.909 364.852 443.617 352.139 436.455L345.364 432.253ZM333.236 481.966L334.443 496.383L334.493 506.073C334.505 507.833 334.408 509.713 335.017 511.397C335.762 513.46 338.472 515.554 340.13 516.931C356.492 530.514 385.76 546.817 407.625 544.65C417.766 543.646 426.434 538.914 432.982 531.154L433.485 530.511C433.691 529.98 434.184 529.097 434.238 528.562C434.394 527.032 433.545 524.457 433.176 522.971C431.473 516.126 429.435 508.773 426.799 502.244L426.453 501.501C423.524 503.887 420.677 506.451 417.457 508.448C409.081 513.643 400.802 515.103 391.103 514.142C383.646 513.403 376.025 510.872 369.222 507.84C355.319 501.645 343.657 493.01 333.236 481.966ZM411.081 27.1651C393.333 28.7066 375.573 31.8427 359.415 39.6832C352.249 43.1604 345.582 47.4459 340.427 53.6213C339.138 55.1652 338.33 56.8719 337.482 58.6757C340.444 57.0835 343.06 55.0481 345.899 53.267C350.348 50.4756 354.874 48.0518 359.657 45.8938C390.214 32.1063 427.794 29.5691 459.942 39.2052C466.177 41.0739 472.348 42.7757 478.463 45.0464C498.214 52.3811 517.051 62.7119 533.306 76.1478C538.73 80.6315 543.901 85.1229 548.471 90.511C554.45 97.5605 559.365 105.536 563.708 113.672C571.165 127.639 575.366 143.282 570.593 158.876L567.029 168.076C558.983 183.907 548.16 196.327 532.139 204.373C528.898 206.001 525.44 207.15 522.127 208.611C520.881 209.16 519.705 209.418 518.941 210.562C520.432 211.622 523.827 210.998 525.615 210.688C541.021 208.012 555.837 198.506 564.776 185.624C578.111 166.406 580.946 144.273 576.73 121.639C572.603 99.4878 557.115 80.552 538.857 68.023C518.558 54.0931 496.542 44.363 473.062 37.148C452.889 30.9489 432.297 26.5681 411.081 27.1651ZM284.735 87.4786C275.79 89.3529 269.891 91.4666 264.494 99.2562C278.064 96.8188 289.198 96.407 302.003 102.266C304.245 103.345 306.565 104.398 308.664 105.74C310.917 107.18 312.994 108.915 315.288 110.28C314.952 107.941 313.969 98.3285 312.644 97.3399C304.331 91.1386 295.405 86.3155 284.735 87.4786ZM396.219 251.714C393.209 252.434 390.838 253.318 388.273 255.144C388.339 258.422 389.071 260.968 390.191 264.037C390.933 264.281 391.419 264.146 392.177 264.048C394.585 263.736 397.191 263.962 399.546 264.536L404.49 266.112L406.83 256.602C403.333 253.826 400.792 252.129 396.219 251.714Z"/>
	<path fill="#F1F6F9" transform="scale(0.666667 0.666667)" d="M437.696 251.966C435.63 252.246 432.469 253.007 430.546 252.188L430.536 250.875C431.857 248.915 434.389 248.415 436.563 247.986L437.374 248.54L436.852 248.905C436.31 249.29 435.935 249.689 435.525 250.216L435.599 251.062L435.975 251.206L437.696 251.966Z"/>
	<path fill="#F1F6F9" transform="scale(0.666667 0.666667)" d="M436.563 247.986L441.718 247.697C442.732 248.185 443.015 248.354 443.737 249.188L444.523 249.938C443.669 251.369 443.252 251.09 441.894 251.669C440.477 251.847 439.126 252.002 437.696 251.966L435.975 251.206L435.599 251.062L435.525 250.216C435.935 249.689 436.31 249.29 436.852 248.905L437.374 248.54L436.563 247.986Z"/>
	<path fill="#F1F6F9" transform="scale(0.666667 0.666667)" d="M441.718 247.697C444.722 247.323 458.622 247.27 460.661 248.758C461.232 249.176 461.277 249.332 461.438 250.026C458.514 251.593 453.863 251.091 450.594 251.136L441.894 251.669C443.252 251.09 443.669 251.369 444.523 249.938L443.737 249.188C443.015 248.354 442.732 248.185 441.718 247.697Z"/>
	<path fill="#F1F6F9" transform="scale(0.666667 0.666667)" d="M475.218 263.416C476.246 263.289 477.704 263.348 478.688 263.66C479.749 263.996 480.073 264.755 480.48 265.688C479.799 266.492 478.976 266.761 477.938 266.931C470.323 268.18 462.376 268.465 454.688 269.199L432.015 272.198C430.342 272.284 429.177 272.429 427.688 271.533C427.046 270.625 426.747 270.374 426.68 269.241C427.962 268.075 430.809 267.904 432.517 267.64C438.811 266.67 445.145 266.367 451.467 265.739L475.218 263.416Z"/>
	<path fill="white" transform="scale(0.666667 0.666667)" d="M343.387 242.414C346.681 242.279 352.451 241.989 354.98 244.435C355.635 245.068 355.431 245.693 355.456 246.562C353.094 248.07 346.912 247.012 344.018 246.742L335.044 247.043C334.114 247.052 332.737 247.157 331.875 246.735C331.107 246.358 331.112 246.106 330.884 245.348C333.385 242.462 339.712 242.699 343.387 242.414Z"/>
	<path fill="white" transform="scale(0.666667 0.666667)" d="M381.067 352.688C381.784 352.466 382.507 352.362 383.25 352.539C385.534 353.082 388.113 354.628 390.352 355.5C397.229 358.178 404.932 359.53 412.31 358.639L412.875 358.564C415.032 358.291 417.15 357.805 419.187 357.038C422.257 355.881 426.885 352.479 430.125 353.262C431.262 353.537 431.82 353.936 432.313 354.938L431.364 356.516L428.589 358.392C419.181 364.13 405.678 364.773 395.204 362.217C390.521 361.075 383.313 358.452 380.695 354.188L381.067 352.688Z"/>
	<path fill="white" transform="scale(0.666667 0.666667)" d="M242.146 643.687C243.066 643.851 243.153 643.977 243.845 644.625C244.335 646.369 244.419 648.127 244.317 649.932L241.802 674.889L241.284 683.739C241.218 685.986 241.317 688.317 240.718 690.492L239.941 690.562C239.623 690.222 239.313 689.896 239.062 689.501C235.372 683.673 238.068 666.479 238.692 659.589C239.063 655.492 239.003 650.642 240.059 646.688C240.45 645.223 240.831 644.396 242.146 643.687Z"/>
	<path fill="#F1F6F9" transform="scale(0.666667 0.666667)" d="M272.505 578.062C273.158 577.97 273.663 578.055 274.312 578.139C275.329 578.842 275.693 579.194 276.216 580.312C275.707 584.728 271.596 589.509 269.438 593.385L263.717 604.624C261.351 609.631 259.922 615.398 257.063 620.091C256.65 620.62 256.346 620.826 255.794 621.188L255.112 620.896C253.783 618.921 254.142 616.887 254.562 614.672C256.253 605.746 260.991 595.985 265.239 587.989C267.071 584.54 269.238 580.311 272.505 578.062Z"/>
	<path fill="white" transform="scale(0.666667 0.666667)" d="M408.98 561.938C409.996 561.71 410.67 561.633 411.659 562.024C414.896 563.301 417.049 565.774 418.434 568.87C420.184 572.784 421.14 577.513 419.453 581.631C418.335 584.36 416.585 585.45 413.949 586.542C412.564 586.565 411.143 586.625 409.807 586.199C407.451 585.448 405.63 583.71 404.485 581.552C402.175 577.196 402.47 572.632 404.007 568.093C404.926 565.378 406.395 563.267 408.98 561.938Z"/>
	<path fill="white" transform="scale(0.666667 0.666667)" d="M503.883 588.188L504.942 587.854C505.687 588 506.133 588.135 506.723 588.641C510.597 591.965 512.571 599.36 514.383 604.081C522.004 623.937 527.6 643.751 532.67 664.384C533.883 669.322 535.528 674.008 535.948 679.11L534.938 679.503L534.118 678.956C528.81 674.659 527.577 663.745 525.868 657.371C522.035 643.082 518.072 628.892 512.965 614.991L507.721 601.854C506.332 598.687 502.793 593.611 502.76 590.25C502.749 589.056 503.06 588.973 503.883 588.188Z"/>
	<path fill="white" transform="scale(0.666667 0.666667)" d="M407.698 613.566C410.581 613.683 412.927 614.068 415.475 615.513C419.023 617.526 421.873 621.217 422.837 625.227C423.701 628.818 422.98 633.344 421.007 636.451C419.423 638.944 417.406 640.124 414.595 640.778C412.31 640.889 409.878 640.749 407.779 639.768C404.433 638.205 401.417 634.822 400.187 631.312C398.813 627.388 399.03 622.59 400.894 618.869C402.389 615.886 404.7 614.635 407.698 613.566Z"/>
</svg>
