<?xml version="1.0" encoding="utf-8" ?>
<svg xmlns="http://www.w3.org/2000/svg" xmlns:xlink="http://www.w3.org/1999/xlink" width="512" height="512">
	<path fill="#141A25" transform="scale(0.666667 0.666667)" d="M310.07 605.252C310.347 605.237 310.799 605.196 311.062 605.256C311.893 605.447 312.076 605.901 312.479 606.562C311.364 608.643 307.166 610.376 305.067 611.601C302.295 613.221 299.525 614.946 296.918 616.818C294.393 618.633 292.067 620.718 290.025 623.062L289.119 623.619C288.298 623.118 288.193 622.793 287.719 621.938C287.853 621.045 288.052 620.231 288.55 619.461C292.543 613.289 303.113 607.114 310.07 605.252Z"/>
	<path fill="#141A25" transform="scale(0.666667 0.666667)" d="M484.224 47.0329C486.285 46.732 488.24 46.7741 490.301 47.087C493.897 47.633 498.218 49.7063 500.294 52.7971C500.986 53.8277 501.218 54.8444 500.982 56.0625C499.896 56.6769 499.413 56.585 498.188 56.5891L487.035 52.6627C485.584 52.094 483.834 51.5652 482.533 50.7041C481.715 50.1629 481.729 50.0345 481.571 49.125C482.472 47.8684 482.81 47.6965 484.224 47.0329Z"/>
	<path fill="#141A25" transform="scale(0.666667 0.666667)" d="M342.818 623.062C343.472 623.065 343.829 623.196 344.438 623.409L344.172 623.817C341.193 627.749 333.545 629.821 329.155 631.743C324.718 633.686 320.359 636.222 315.562 637.137L313.667 636.938C313.556 636.261 313.397 636.15 313.776 635.527C314.945 633.607 317.868 632.498 319.819 631.524C327.041 627.919 334.919 624.779 342.818 623.062Z"/>
	<path fill="#141A25" transform="scale(0.666667 0.666667)" d="M398.463 275.438C399.051 275.316 399.478 275.328 400.071 275.355C400.801 276.379 400.797 276.426 400.767 277.688C398.952 281.208 395.122 283.498 391.443 284.725C382.98 287.549 374.624 287.158 366.711 283.074C365.853 282.466 365.477 281.925 364.913 281.062C364.91 279.975 364.834 279.683 365.396 278.774C368.376 278.214 373.147 280.976 376.372 281.516C384.822 282.931 391.662 280.266 398.463 275.438Z"/>
	<path fill="#141A25" transform="scale(0.666667 0.666667)" d="M339.613 606.847C340.472 606.714 341.35 606.673 342.22 606.67C343.588 606.666 344.388 606.927 345.36 607.875C344.749 609.005 343.846 609.474 342.73 610.055C337.068 613.003 329.54 613.287 323.438 615.468C318.598 617.197 314.153 619.321 309.622 621.733C308.289 622.596 306.643 623.789 305.062 623.974L304.861 623.062C304.981 622.38 305.106 621.899 305.512 621.323C306.996 619.217 309.248 617.54 311.373 616.132C319.412 610.806 330.2 608.413 339.613 606.847Z"/>
	<path fill="#141A25" transform="scale(0.666667 0.666667)" d="M400.681 436.688L401.302 436.575C402.304 436.579 402.779 437.193 403.46 437.812C403.464 438.25 403.528 438.691 403.473 439.125C403.199 441.291 390.048 455.209 387.651 458.408C383.305 464.21 378.888 469.948 375.188 476.199C369.043 486.578 364.25 497.451 359.809 508.64L355.97 519.791C355.03 522.877 354.281 525.838 352.688 528.671L351.695 529.768L351.188 529.508C349.969 526.519 350.717 522.994 351.423 519.932C357.751 492.463 371.939 468.343 390.508 447.439C393.552 444.012 396.797 439.118 400.681 436.688Z"/>
	<path fill="#141A25" transform="scale(0.666667 0.666667)" d="M393.896 336.562L394.88 336.284L395.438 336.648C395.822 338.824 395.093 340.871 394.484 342.938C393.397 346.628 391.892 350.592 391.56 354.438C390.831 362.879 390.734 373.881 396.7 380.693C399.446 383.829 402.284 384.879 406.312 385.35C409.958 385.776 413.314 385.1 416.815 384.143C421.271 382.925 425.512 381.115 429.439 378.665C439.988 372.083 448.27 362.793 459.99 357.962C464.025 356.299 468.335 355.177 472.74 355.569C474.513 355.727 475.476 356.003 476.578 357.375L476.022 358.275C474.678 358.931 473.505 359.357 472.033 359.629C465.861 361.106 460.034 363.175 454.555 366.435C448.617 369.968 443.502 374.587 438.022 378.752C429.282 385.396 417.619 392.614 406.092 390.92C400.209 390.055 395.274 387.372 391.688 382.542C385.718 374.502 385.145 364.575 386.616 354.984C387.515 349.116 388.882 340.235 393.896 336.562Z"/>
	<path fill="#141A25" transform="scale(0.666667 0.666667)" d="M331.115 251.062C332.313 251.382 332.79 251.8 333.562 252.813C335.163 254.912 336.369 257.836 337.446 260.25L343.938 275.625C345.978 280.126 348.36 284.903 350.9 289.126C355.778 297.235 362.037 305.353 369.333 311.416C381.567 321.583 398.744 327.458 414.654 326.067C440.529 323.805 462.663 302.58 472.087 279.238C475.615 270.497 476.609 260.173 482.776 252.836C483.109 254.772 483.292 256.545 483.311 258.514C478.503 279.722 470.92 299.628 453.944 314.15C438.989 326.944 421.25 332.954 401.621 331.335C384.116 329.89 367.984 320.418 356.726 307.203C346.473 295.169 339.834 281.279 334.22 266.636C332.391 261.865 329.969 256.832 330.396 251.637L331.115 251.062Z"/>
	<path fill="#141A25" transform="scale(0.666667 0.666667)" d="M440.583 601.735C439.432 600.77 438.424 599.694 437.422 598.577C420.077 579.226 422.446 537.225 421.518 512.438C421.052 500.014 419.692 487.654 420.399 475.192C418.129 480.48 417.006 485.904 415.501 491.429C411.313 506.802 408.268 522.674 406.692 538.54L405.502 552.188L405.2 561.331C404.212 558.78 403.5 556.311 403.015 553.616C401.475 545.066 402.387 535.627 403.409 527.058C406.71 499.38 414.87 472.437 423.196 445.908C425.946 437.144 428.295 428.326 431.764 419.793C435.468 410.681 440.164 401.601 445.777 393.507C455.157 379.981 466.641 368.677 483.41 365.676L483.073 366.085C482.063 367.248 480.153 368.005 478.839 368.812L471.274 373.82C467.008 376.886 463.165 380.549 459.544 384.344C432.575 412.619 423.826 455.907 425.019 493.861L425.976 509.663C426.384 529.478 425.95 549.641 429.735 569.202C430.859 575.012 432.194 580.733 434.155 586.323C435.115 589.06 436.122 591.782 437.328 594.422C438.348 596.653 440.399 599.334 440.583 601.735Z"/>
	<path fill="#141A25" transform="scale(0.666667 0.666667)" d="M409.917 10.6248C420.562 9.8812 430.543 11.0743 440.055 16.1984C456.132 24.8596 468.346 41.5643 473.541 58.8435C478.566 58.4656 483.747 58.2296 488.689 59.4075L489.375 59.5772C492.439 60.3133 495.416 61.3406 498.316 62.5754C516.385 70.2684 530.456 83.8603 537.718 102.226C543.104 115.845 543.461 133.018 537.474 146.494C531.725 159.438 519.843 168.164 506.989 173.083C509.561 176.886 511.994 180.108 513.466 184.528C514.536 187.741 514.612 190.842 514.599 194.201C514.57 201.986 513.234 208.553 509.703 215.578C505.921 223.105 500.552 230.512 492.188 233.18C488.939 234.217 483.614 234.111 480.644 232.312C479.615 231.69 479.507 230.935 479.184 229.875C479.331 229.653 479.388 229.331 479.625 229.208C480.018 229.003 481.454 229.073 481.964 229.032C484.068 228.864 486.216 228.719 488.279 228.263C490.822 227.7 492.796 226.014 494.793 224.438C496.913 222.764 498.643 220.818 500.254 218.653C506.325 210.497 509.998 200.026 508.355 189.855C507.558 184.916 504.568 178.249 500.25 175.434C495.261 172.182 488.737 172.311 483.164 173.601C480.326 174.258 478.361 175.357 476.83 177.927L476.529 178.453C475.401 180.398 475.326 182.539 474.985 184.713C472.813 198.527 474.839 212.087 477.761 225.62C475.56 223.473 473.495 221.241 472.052 218.494C469.158 212.99 469.047 205.829 468.643 199.732C468.588 198.908 468.688 197.369 468.22 196.742C459.639 198.702 436.839 201.611 432.008 208.482L431.713 208.916C429.857 211.55 429.347 215.812 428.447 218.91C427.124 223.459 425.364 228.007 422.72 231.97C419.375 236.984 414.279 241.116 408.223 242.155C400.828 243.424 394.568 240.53 388.762 236.285C385.788 233.742 382.915 230.973 380.732 227.701C378.164 223.853 373.782 212.025 370.312 210.23C369.367 210.595 368.279 210.968 367.517 211.659C366.436 212.641 365.882 214.334 365.353 215.667L361.221 227.432C358.703 233.727 355.622 239.903 353.508 246.345C352.727 248.728 352.051 250.951 352.114 253.5C352.179 256.153 352.968 257.808 354.792 259.688C356.466 261.412 358.445 262.754 360.859 263.151C363.193 263.536 368.401 262.471 370.038 264L369.981 264.388C369.739 265.271 369.004 266.023 368.232 266.484C365.498 268.118 361.492 268.056 358.5 267.284C354.014 266.125 350.052 263.322 347.821 259.204C345.367 254.673 347.053 249.366 348.412 244.778C344.68 245.159 340.523 245.911 336.798 245.477C330.897 244.79 326.376 240.766 322.782 236.323C318.149 230.595 316.376 223.911 313.483 217.312C312.623 215.351 311.314 213.348 310.752 211.287C310.304 209.647 310.232 207.746 310.446 206.062C310.597 204.87 310.884 203.775 311.929 203.06C313.903 201.709 318.492 202.307 320.797 202.371C328.548 202.587 336.394 202.855 344.062 204.091C348.886 204.869 353.559 205.988 358.282 207.219C355.047 198.647 348.901 193.755 340.084 191.296C336.321 190.247 331.858 190.074 327.957 189.613C323.141 189.043 318.355 188.612 314.237 185.817C313.409 185.255 313.249 182.584 313.046 181.521C305.094 181.268 297.096 180.003 289.707 176.942C278.649 172.361 268.065 163.287 263.51 152.044C258.866 140.58 260.966 127.417 265.651 116.331C273.534 97.6774 289.112 84.0944 307.678 76.5664C321.174 71.0941 335.514 69.4915 349.955 70.2889C354.956 70.565 360.022 70.936 364.875 72.2497C367.835 73.0509 370.736 74.4381 373.564 75.6295L370.795 64.4814L370.709 63.8851L370.605 63.2516C368.678 51.0099 370.418 39.2613 377.815 29.1094C385.852 18.081 396.72 12.6535 409.917 10.6248ZM406.794 90.1948C404.671 98.5341 402.573 106.846 399.498 114.902C391.509 135.832 376.712 157.784 357.183 169.501C351.091 173.156 343.789 176.097 336.951 177.959C331.43 179.463 325.808 180.432 320.369 182.227C329.802 183.715 340.583 182.91 349.21 187.483C353.364 189.684 356.646 193.187 359.392 196.943C360.721 198.76 361.843 201.31 363.476 202.797C365.439 202.01 367.349 201.258 369.438 200.874C371.612 200.475 373.941 200.479 376.037 199.783L376.239 199.272C376.801 197.87 377.357 196.73 378.34 195.562L378.955 195.164C383.432 192.458 423.657 195.597 431.625 195.232C437.472 194.964 443.667 193.049 449.384 191.784C455.697 190.387 462.45 189.317 468.566 187.281L468.539 186.766L468.809 179.147C464.817 177.449 461.094 175.755 457.486 173.316C453.823 170.839 450.738 167.879 447.638 164.75C439.595 156.631 432.366 146.611 428.051 135.953C426.79 132.836 426.164 129.615 425.368 126.365C423.139 117.263 421.384 108.312 417.01 99.9247C415.067 96.1973 412.996 92.7895 408.944 91.0538L406.794 90.1948ZM408.507 200.052L381.923 200.188L380.474 204.89C380.189 206.061 379.76 206.735 379.062 207.697C378.696 208.201 378.498 208.659 378.312 209.25L378.82 209.648C381.045 211.447 381.402 215.232 382.427 217.865C385.318 225.288 390.659 232.358 397.944 235.884C402.109 237.408 405.855 238.082 410.062 236.165C417.362 232.841 421.203 224.621 423.769 217.494C425.282 213.291 427.013 207.134 425.173 202.875C421.146 200.35 413.201 200.174 408.507 200.052ZM317.843 207.427C320.55 217.779 325.29 233.549 335.086 239.153L336 239.631L336.366 239.83C338.794 241.041 343.661 240.157 346.062 239.188C348.818 238.075 351.086 235.94 352.644 233.446C356.234 226.634 358.375 219.188 358.755 211.47L341.233 208.734C333.546 207.726 325.585 207.384 317.843 207.427Z"/>
	<path fill="#141A25" transform="scale(0.666667 0.666667)" d="M407.179 132.46C410.574 131.984 414.263 132.195 417.574 133.095C420.146 133.793 423.738 134.902 425.102 137.36C425.258 138.702 425.262 139.527 424.823 140.812C423.787 141.299 423.363 141.073 422.255 140.88C418.934 139.399 415.488 138.217 411.856 137.807C409.635 137.557 406.907 137.693 404.801 136.932C403.545 136.478 403.141 135.75 402.62 134.625L402.872 134.062C404.253 133.221 405.637 132.866 407.179 132.46Z"/>
	<path fill="#141A25" transform="scale(0.666667 0.666667)" d="M407.582 176.024C412.567 176.226 421.607 176.084 425.438 179.627C425.447 180.712 425.112 181.27 424.242 181.997C423.794 182.371 423.095 182.799 422.498 182.882C420.644 183.142 417.619 181.808 415.685 181.488C413.448 181.118 411.105 181.052 408.842 180.899C406.603 180.593 403.342 181.015 401.163 181.595C399.033 182.162 395.231 184.335 393.188 183.793C392.3 182.897 392.193 182.72 391.879 181.5L392.123 181.113C395.322 177.038 402.873 176.322 407.582 176.024Z"/>
	<path fill="#141A25" transform="scale(0.666667 0.666667)" d="M495.777 365.09L492.363 362.106C496.904 360.56 499.668 360.378 504.05 362.524C513.366 367.087 522.18 373.839 530.356 380.202C541.673 389.009 552.378 398.633 561.572 409.677C571.33 421.399 579.018 434.623 586.136 448.059L604.743 486.862L617.852 519.989L630.164 551.56L639.727 576.518L653.17 628.587L661.45 620.438C661.391 619.3 660.649 619.255 660.509 618.562C660.48 618.42 662.46 615.97 662.723 615.68C665.987 612.068 668.653 608.191 671.604 604.348C680.707 592.498 689.189 580.234 696.801 567.375C715.187 536.316 729.998 502.409 737.71 467.062C741.881 447.945 743.854 428.813 744.895 409.312C745.701 394.205 746.096 378.916 745.407 363.789C744.392 341.491 742.205 319.19 737.361 297.375C727.262 251.887 705.086 208.973 675.618 172.989C663.295 157.941 649.565 144.014 635.129 130.991C613.216 111.222 589.043 94.3233 562.312 81.7169L548.995 75.8013C541.13 72.6622 532.912 69.7408 525.764 65.1317C523.695 63.7972 522.4 63.0727 521.891 60.5625L522.311 59.5412C527.044 57.7332 558.126 71.4716 563.922 74.0625C583.844 82.968 602.172 94.2813 619.565 107.438L630.095 116.144C673.383 151.258 710.759 198.106 730.81 250.417C741.408 278.065 748.446 307.808 751.196 337.312C752.513 351.443 752.695 365.527 752.774 379.71L752.305 418.305C749.889 457.485 739.796 497 723.748 532.807C713.962 554.642 701.923 575.618 687.699 594.874L671.193 615.375C666.95 620.667 663.159 626.432 658.755 631.585C653.291 637.98 647.048 644.025 640.988 649.857C631.166 659.308 621.127 668.338 609.953 676.187C604.547 679.984 598.678 683.188 592.767 686.114C590.234 687.367 587.583 688.322 585.137 689.744C583.886 690.472 582.443 690.919 581.346 691.875C582.173 692.363 583.521 692.016 584.434 691.786L585.997 691.312L586.467 691.875C585.199 695.897 578.844 699.078 575.353 701.266L552.979 714.185C541.015 720.408 528.545 725.664 516.021 730.638C491.31 740.45 465.807 748.654 439.468 752.703C423.824 755.108 408.046 755.813 392.246 756.144L364.363 756.189C331.543 754.789 298.583 747.845 267.33 737.895C252.073 733.038 237.441 726.682 223.089 719.624C192.569 704.615 163.578 685.341 138.552 662.253C120.104 645.234 103.493 625.798 88.4148 605.772L75.5468 588.586C66.9212 576.1 59.2465 562.826 52.33 549.328C41.9379 529.046 33.5812 507.841 28.1487 485.689C18.8154 447.631 17.1826 408.756 18.2325 369.75C18.5673 357.31 18.7228 344.984 20.067 332.594C22.3474 311.575 26.5729 289.951 33.0439 269.819C55.257 200.713 101.696 140.135 161.625 99.3523C171.881 92.3729 182.446 85.2887 193.504 79.6154L222.518 65.4565C243.928 56.0695 266.799 48.3127 289.537 42.8806C293.895 41.8396 300.38 39.3731 304.825 40.6593C305.758 40.9292 305.868 41.0162 306.324 41.8125C305.211 44.4398 303.21 45.574 300.651 46.6076C292.051 50.082 282.81 52.0747 273.945 54.7606C259.015 59.2842 244.342 64.4392 229.99 70.5623C152.039 103.818 84.7509 166.565 50.7789 244.646C38.5201 272.821 31.3107 302.346 27.9302 332.812C26.9533 341.617 25.8507 350.584 25.5064 359.438L25.3255 384.856C25.2939 396.022 24.921 407.437 25.5605 418.576C26.3369 432.099 28.2521 445.763 30.6876 459.078C34.5652 480.277 39.8072 500.281 47.7932 520.338C55.1763 538.881 64.7614 555.857 75.3864 572.688C85.6626 588.967 96.3459 604.4 109.564 618.472C112.238 621.318 115.076 624.315 118.076 626.812C122.468 630.468 127.617 633.721 131.436 637.985C134.21 641.082 136.135 645.267 138.286 648.814C142.472 655.72 147.419 661.799 153.326 667.302C163.402 668.251 173.489 670.707 183.562 672.001L241.079 678.562C248.94 679.424 256.922 680.774 264.806 681.231C272.554 681.679 280.052 680.226 287.756 679.878L336.75 676.382C346.492 675.734 356.127 675.568 365.815 674.181C366.529 674.079 366.994 674.016 367.502 673.498C365.097 672.573 361.567 673.188 359.004 673.356L339.639 674.997C332.384 675.65 324.769 676.466 317.49 676.158C310.042 675.843 302.495 674.416 295.113 673.395L256.531 667.805L199.081 659.027L184.995 655.622C183.511 655.197 181.039 654.889 180.185 653.384C179.86 652.811 179.808 651.839 179.726 651.188C177.378 650.134 174.059 650.344 171.478 650.021L157.886 647.735C155.221 647.283 149.659 646.898 147.73 645L147.497 644.062C148.064 643.273 148.495 642.713 149.535 642.58C152.692 642.179 157.565 643.894 160.732 644.469L160.841 644.282L160.54 643.943C158.17 641.216 156.122 637.871 154.879 634.47C145.207 608.005 139.936 579.833 132.676 552.644L124.214 521.042C122.925 516.27 120.952 511.362 120.464 506.438C120.858 505.479 120.801 505.245 121.821 504.868C124.476 503.884 129.07 504.736 131.878 505.145L148.55 508.374L189.609 516.175L239.157 525.411L250.067 527.438C252.576 527.916 255.263 528.307 257.593 529.404C260.227 530.643 261.22 533.641 262.04 536.25C264.723 544.782 266.293 553.864 268.306 562.588L275.744 593.625C277.631 602.554 279.418 611.491 281.992 620.25C283.096 624.007 284.075 627.734 285.786 631.273L286.337 631.098C289.143 630.228 292.858 629.92 295.551 631.293L296.438 631.829L296.555 632.625L295.635 633.75C296.281 634.469 297.003 634.46 297.938 634.502C302.616 634.714 307.117 633.891 311.812 634.558C311.671 635.557 311.12 636.068 310.312 636.684C309.172 637.553 307.342 637.45 305.948 637.54C301.969 637.795 297.581 638.367 293.646 637.602C290.929 637.073 288.285 635.477 286.297 633.595L288.018 641.972L299.546 640.379C306.418 639.403 333.712 634.75 338.438 638.56C338.807 638.858 339.125 639.372 339.387 639.75C339.157 640.576 339.388 640.372 338.755 640.733C337.238 641.597 335.196 641.655 333.493 641.81L323.413 642.473L305.263 643.585C299.569 643.967 293.765 644.454 288.139 645.4C288.504 646.879 288.942 649.792 290.225 650.721C292.366 652.27 298.076 652.471 300.75 652.522C308.895 652.677 317.017 651.604 325.137 651.089L381.663 647.871C379.506 646.206 376.891 645.005 374.469 643.764C369.903 641.425 365.357 639.337 360.51 637.635C358.368 636.882 355.858 637.959 354.036 636.732L353.679 635.812C354.577 634.372 356.291 633.921 357.862 633.548C362.755 632.386 365.898 632.619 370.21 635.377C383.626 643.957 397.46 652.558 412.825 657.252C415.758 658.149 423.724 659.953 424.842 662.812C424.077 663.586 423.598 664.206 422.438 664.249C419.218 664.367 415.209 662.909 412.185 661.938C406.393 660.079 400.395 658.205 395.049 655.264C393.474 654.397 391.916 653.303 390.562 652.12C390.204 651.807 388.246 649.657 388.007 649.608C387.849 649.575 387.755 649.807 387.626 649.904C385.271 651.681 382.679 651.987 379.828 652.364C373.667 653.177 367.378 653.317 361.177 653.676L329.89 655.556L311.024 656.914C305.047 657.439 298.113 658.519 292.164 657.672C291.38 657.561 290.664 657.287 289.909 657.072L288.107 656.648L287.595 657.006C282.64 660.442 277.958 658.773 272.462 659.956C268.909 660.72 264.822 660.379 261.197 660.217C249.787 659.709 238.467 657.978 227.166 656.415L202.559 653.572C201.951 653.515 202.224 653.426 201.767 653.916C203.543 655.023 205.72 655.213 207.75 655.589L219.562 657.444L269.961 664.312L299.269 669.106C304.737 669.776 310.174 670.202 315.685 670.205C322.817 670.208 329.811 669.251 336.912 668.715L387.17 664.654C390.561 664.416 410.388 663.064 412.312 664.692C412.379 664.748 412.606 665.383 412.64 665.532C412.83 666.356 412.555 667.367 412.407 668.19C409.013 670.493 398.468 670.229 394.17 670.538L381.344 671.863C379.584 672.122 377.763 671.991 376.123 672.748L376.125 672.966C378.091 673.637 380.283 673.266 382.33 673.202C389.669 672.974 396.833 671.661 404.117 671.082L418.875 670.395C419.87 670.343 422.24 669.843 423.031 670.281C423.818 670.717 424.897 672.249 425.486 672.997C426.943 674.845 428.398 676.616 430.043 678.305C430.507 678.781 431.28 679.658 431.899 679.897C433.307 680.439 436.346 678.823 437.667 679.927C442.286 683.79 444.364 689.468 448.512 693.729C455.204 687.968 458.045 680.463 458.701 671.767C459.895 655.944 453.749 638.244 443.329 626.333C440.51 623.11 436.371 619.569 432.605 617.553C429.938 617.981 427.932 618.143 425.253 617.537C418.854 616.091 412.529 612.838 406.528 610.223L384.706 600.857C380.155 598.901 375.605 596.76 370.948 595.071C361.408 591.612 350.945 588.962 340.769 588.395C326.104 587.579 311.355 589.642 297.473 594.468C292.5 596.197 287.418 599.299 282.188 599.988C281.225 599.164 281.323 599.213 281.224 597.938C282.092 596.3 283.515 595.435 285.022 594.446C289.653 591.407 294.939 589.436 300.206 587.803C307.035 585.687 314.189 584.577 321.244 583.547C319.951 572.934 318.857 562.418 318.524 551.715C318.201 541.355 318.758 531.187 319.435 520.866C320.185 509.439 321.22 498.25 323.084 486.938C325.579 471.795 329.708 456.713 334.094 442.021C339.799 422.91 346.776 403.395 359.184 387.502C361.19 384.934 366.894 377.049 370.312 376.581C371.071 376.477 371.898 376.567 372.658 376.631C373.289 377.547 373.265 377.697 373.063 378.807C372.886 379.778 372.46 380.858 371.886 381.665C371.098 382.774 367.837 384.447 368.64 385.826C371.827 386.789 374.727 387.968 377.557 389.74C378.625 386.83 379.592 384.437 381.68 382.069L382.378 381.867C382.587 384.446 381.871 386.963 381.345 389.47C380.284 394.522 378.382 401.162 379.466 406.227C380.277 410.015 383.236 414.005 386.164 416.452C390.579 420.141 395.6 421.231 401.25 420.672C406.55 420.148 412.008 417.616 416.535 414.938C418.608 413.711 420.799 411.692 423.254 411.337C424.168 411.205 425.016 411.654 425.812 412.031L426.279 412.875C424.172 417.856 418.092 421.036 413.297 422.971C404.944 426.343 396.407 427.56 387.884 423.979C382.457 421.699 378.941 417.805 375.848 412.905C362.807 438.933 356.511 467.376 352.061 495.938C349.325 513.503 347.248 531.23 347.188 549.028C349.098 549.137 351.373 548.983 353.062 549.947C353.648 550.893 354.045 551.472 353.837 552.627C353.654 553.645 353.088 554.531 352.125 554.959C350.74 555.575 348.441 555.365 346.921 555.357L347.647 573.375C347.78 576.831 347.458 581.001 348.242 584.346L357.932 585.605C362.821 586.447 367.898 588.06 372.562 589.751C389.179 595.778 404.984 604.005 421.371 610.642C423.134 611.356 426.499 613.231 428.357 613.331C431.411 613.496 435.148 611.33 438.019 610.391C440.989 609.419 444.658 608.648 447.767 608.725L440.583 601.735C440.399 599.334 438.348 596.653 437.328 594.422C436.122 591.782 435.115 589.06 434.155 586.323C432.194 580.733 430.859 575.012 429.735 569.202C425.95 549.641 426.384 529.478 425.976 509.663L425.019 493.861C423.826 455.907 432.575 412.619 459.544 384.344C463.165 380.549 467.008 376.886 471.274 373.82L478.839 368.812C480.153 368.005 482.063 367.248 483.073 366.085L483.41 365.676C487.451 365.145 491.989 366.211 495.777 365.09ZM129.619 512.553L150.583 595.572C154.552 610.711 157.696 625.747 163.547 640.352L177.398 643.113L219.344 648.562C237.623 650.865 256.859 654.608 275.336 653.157C277.808 652.963 280.193 652.338 282.461 651.343C283.247 650.657 283.716 650.44 283.76 649.312C283.863 646.635 282.025 642.696 281.235 640.125L276.525 623.883L263.65 572.786L257.405 546.581C256.527 542.571 255.455 538.66 254.939 534.577C252.888 533.81 250.14 533.798 247.926 533.456L234.759 531.175L163.594 518.718L146.812 515.98C141.013 515.148 135.207 514.408 129.619 512.553Z"/>
	<path fill="#141A25" transform="scale(0.666667 0.666667)" d="M470.653 701.898C471.553 704.633 473.69 707.097 475.348 709.436C472.27 709.062 466.974 708.528 464.337 706.894C466.424 705.139 468.493 703.423 470.298 701.371L470.666 700.948L470.653 701.898Z"/>
	<path fill="#282F3E" transform="scale(0.666667 0.666667)" d="M444.675 612.562C445.841 612.343 446.658 612.317 447.731 612.868C461.489 619.945 468.55 636.679 472.559 650.708L463.688 650.751L463.065 650.653C461.851 650.463 460.955 646.591 460.507 645.375C455.736 632.452 448.438 621.539 437.17 613.5L437.438 613.113L439.125 612.842L439.429 613.313C440.889 613.85 442.049 614.336 443.625 614.434C444.442 613.78 444.401 613.592 444.675 612.562Z"/>
	<path fill="#282F3E" transform="scale(0.666667 0.666667)" d="M368.64 385.826C371.827 386.789 374.727 387.968 377.557 389.74C376.189 395.769 374.562 401.975 372.515 407.809C370.6 413.264 367.992 418.493 365.826 423.853L356.971 449.21C348.705 477.092 343.812 506.283 342.583 535.357L342.251 583.818L325.987 583.167C324.643 564.79 323.692 546.598 324.538 528.158C325.84 499.794 331.357 472.42 339.549 445.294C343.169 433.307 346.534 421.317 352.094 410.032C355.289 403.547 359.148 397.417 363.585 391.708C364.969 389.927 367.441 388.11 368.458 386.249L368.64 385.826Z"/>
	<path fill="#282F3E" transform="scale(0.666667 0.666667)" d="M495.777 365.09C497.365 365.328 498.69 366.27 500.044 367.089C502.998 368.877 505.798 370.99 508.644 372.952C518.315 379.619 528.26 386.136 537.197 393.773C547.105 402.241 555.845 412.236 563.574 422.694C585.483 452.339 599.074 487.116 612.428 521.155L636.468 585.832L642.028 605.625L649.373 632.14C646.065 636.889 641.111 641.001 637.125 645.242C626.706 656.329 614.854 667.277 601.928 675.376C586.248 685.2 568.454 691.624 550.799 696.886C541.03 699.798 531.147 702.852 521.09 704.61C507.269 707.026 492.59 707.291 478.847 704.176C476.114 703.556 473.216 703.062 470.653 701.898L470.666 700.948C471.776 698.199 473.203 695.631 474.232 692.838C476.478 686.743 477.51 680.723 478.168 674.285C478.405 671.97 478.853 669.437 478.809 667.125C478.53 652.783 474.691 635.432 465.938 623.808C463.264 620.258 460.014 617.522 456.923 614.368L587.438 603.62L587.54 603.141C584.705 602.718 581.843 602.894 579 602.631C576.115 602.365 573.372 601.985 570.439 602.046L558.167 602.722L537.082 603.126L512.062 604.941C506.984 605.333 501.723 605.47 496.687 606.189L463.416 609.745C461.121 609.973 457.295 609.633 455.317 610.464C454.167 610.946 449.595 609.451 448.286 608.936L447.767 608.725L440.583 601.735C440.399 599.334 438.348 596.653 437.328 594.422C436.122 591.782 435.115 589.06 434.155 586.323C432.194 580.733 430.859 575.012 429.735 569.202C425.95 549.641 426.384 529.478 425.976 509.663L425.019 493.861C423.826 455.907 432.575 412.619 459.544 384.344C463.165 380.549 467.008 376.886 471.274 373.82L478.839 368.812C480.153 368.005 482.063 367.248 483.073 366.085L483.41 365.676C487.451 365.145 491.989 366.211 495.777 365.09Z"/>
</svg>
