<?xml version="1.0" encoding="utf-8" ?>
<svg xmlns="http://www.w3.org/2000/svg" xmlns:xlink="http://www.w3.org/1999/xlink" width="512" height="512">
	<path fill="#282F3E" transform="scale(0.666667 0.666667)" d="M390.491 307.312C394.412 307.102 398.787 307.983 402.745 308.2C404.768 308.311 406.766 307.981 408.786 308.254C409.431 308.341 409.832 308.542 410.343 308.933L410.438 309.645L409.312 310.562C405.333 312.536 397.909 311.907 393.673 310.69C391.661 310.112 391.115 310.005 390.136 308.228L390.491 307.312Z"/>
	<path fill="#282F3E" transform="scale(0.666667 0.666667)" d="M334.618 709.312C335.052 709.416 335.565 709.41 335.856 709.78C336.518 710.624 336.389 711.548 336.242 712.53C335.675 716.327 334.662 720.018 333.787 723.75C333.156 726.443 332.886 730.088 330.562 731.824C329.872 731.555 329.556 731.238 329.012 730.75C328.142 728.31 328.683 723.589 329.313 721.071C330.215 717.46 331.49 711.628 334.618 709.312Z"/>
	<path fill="#282F3E" transform="scale(0.666667 0.666667)" d="M543.838 68.0625C544.405 67.9067 544.963 67.8103 545.553 67.7843C549.503 67.611 554.408 69.4388 558.023 71.0164C559.041 71.4604 560.389 71.9536 561.145 72.7642C561.836 73.5054 561.651 74.2486 561.662 75.1875C561.041 76.1587 560.353 76.5203 559.38 77.0625C558.842 77.2322 558.848 77.2511 558.188 77.3354C554.12 77.8544 545.554 76.4668 542.326 73.8731C541.588 72.5672 541.511 71.801 541.548 70.3125C542.234 69.069 542.579 68.7193 543.838 68.0625Z"/>
	<path fill="#282F3E" transform="scale(0.666667 0.666667)" d="M433.789 155.438C435.702 155.018 437.624 154.992 439.476 155.731C444.312 157.661 448.804 163.526 450.85 168.25C451.829 170.511 454.173 175.629 453.249 177.938L451.688 178.554C451.375 178.518 451.203 178.525 450.902 178.342C448.962 177.171 447.251 173.814 446.007 171.95C443.848 168.715 441.564 165.442 438.571 162.916C436.804 161.425 432.854 159.433 432.127 157.312C432.513 156.003 432.581 156.118 433.789 155.438Z"/>
	<path fill="#282F3E" transform="scale(0.666667 0.666667)" d="M399.765 574.564C401.686 574.419 404.599 574.15 406.278 575.16L406.688 575.427C408.414 576.501 409.491 577.607 410.335 579.495C411.127 581.266 411.204 584.321 410.356 586.054C409.425 587.957 407.677 588.884 405.784 589.579C403.897 589.686 401.456 589.727 399.661 589.043C397.616 588.263 395.458 586.526 394.651 584.444C393.824 582.311 393.78 579.936 394.844 577.863C395.788 576.026 397.927 575.162 399.765 574.564Z"/>
	<path fill="#282F3E" transform="scale(0.666667 0.666667)" d="M393.419 542.679C395.164 542.458 397.779 542.451 399.438 543.038C401.483 543.76 403.321 545.818 404.204 547.761C405.115 549.764 405.246 552.972 404.305 555.017C403.266 557.275 401.032 558.263 398.882 559.143C397.622 559.359 396.283 559.294 395.075 558.858C392.629 557.978 389.745 555.707 388.659 553.312C387.678 551.151 387.507 549.31 388.426 547.084C389.452 544.599 391.053 543.727 393.419 542.679Z"/>
	<path fill="#282F3E" transform="scale(0.666667 0.666667)" d="M520.891 12.8146C521.791 12.7498 522.87 12.5982 523.714 12.9919C524.594 13.4023 524.968 13.7282 525.232 14.6719C525.675 16.2505 523.551 19.9215 522.807 21.375C520.487 25.9104 517.197 31.4409 512.062 33.1128C511.171 33.3346 510.339 33.0274 509.471 32.8125C508.452 32.0187 507.765 31.3055 507.471 30C506.773 26.8903 509.024 21.3802 510.7 18.7782C513.129 15.0073 516.775 13.8238 520.891 12.8146Z"/>
	<path fill="#282F3E" transform="scale(0.666667 0.666667)" d="M313.009 153.476C317.374 152.77 323.253 153.271 327.375 154.926C328.996 155.577 331.633 156.873 332.083 158.752C332.315 159.719 331.957 160.703 331.253 161.388C330.644 161.981 329.717 162.33 328.875 162.343C327.865 162.36 326.496 161.803 325.471 161.585C323.112 161.084 320.762 160.759 318.369 160.477C315.148 160.451 312.083 160.875 309.023 161.88C307.257 162.461 305.53 163.381 303.75 163.872C302.979 164.085 301.934 164.452 301.239 163.973C300.371 163.375 299.991 162.664 299.776 161.645C299.598 160.806 299.993 159.654 300.503 158.969C303.15 155.407 308.907 154.2 313.009 153.476Z"/>
	<path fill="#282F3E" transform="scale(0.666667 0.666667)" d="M419.938 168.155C422.658 167.949 425.652 168.034 428.215 169.038C429.919 169.705 431.969 170.97 432.613 172.777C432.823 173.369 432.599 174.016 432.323 174.562C430.284 178.609 424.036 174.297 420.574 174.266C416.37 174.23 411.771 175.925 407.895 177.456L397.312 182.193L396.674 181.941C396.463 181.45 396.379 181.324 396.287 180.75C396.107 179.62 396.837 178.371 397.541 177.562C402.858 171.451 412.099 168.731 419.938 168.155Z"/>
	<path fill="#282F3E" transform="scale(0.666667 0.666667)" d="M386.432 510.919C387.994 510.796 389.551 510.702 391.107 510.945C393.137 511.263 395.85 511.872 397.04 513.648L397.312 514.086L398.191 515.608C399.131 517.681 399.188 520.166 398.35 522.279C397.243 525.069 395.319 526.347 392.719 527.546C389.935 527.686 387.388 527.743 384.839 526.373C383.076 525.426 381.177 523.453 380.611 521.508L380.494 521.062C379.999 519.268 380.092 516.489 380.952 514.79C381.997 512.726 384.403 511.699 386.432 510.919Z"/>
	<path fill="#282F3E" transform="scale(0.666667 0.666667)" d="M343.832 176.398C344.972 176.305 346.105 176.226 347.244 176.374C350.157 176.75 351.149 177.813 352.876 180.005C349.578 181.369 346.058 181.447 342.571 182.063C331.891 183.949 321.232 185.909 311.796 191.541L311.518 191.721L311.051 192.016C309.665 192.919 308.539 193.435 306.938 193.881C305.703 193.331 305.624 193.091 304.911 192C304.768 190.532 305.258 189.569 306.157 188.415C307.976 186.08 310.745 184.465 313.395 183.245C322.622 178.996 333.818 177.421 343.832 176.398Z"/>
	<path fill="#282F3E" transform="scale(0.666667 0.666667)" d="M431.02 278.438C431.642 278.232 432.277 278.134 432.938 278.256C433.882 278.431 434.451 279.241 435.003 279.938C435.271 281.35 435.21 281.805 434.606 283.125C430.987 291.043 421.019 296.993 413.062 299.602C399.362 304.095 382.267 302.814 369.451 296.263C368.184 295.391 366.094 294.243 365.463 292.794C365.188 292.16 365.499 291.795 365.712 291.188C366.12 291.018 366.498 290.726 366.938 290.679C367.693 290.599 369.381 291.429 370.097 291.706C373.308 292.95 376.572 294.483 379.955 295.176C386.698 296.557 393.032 297.085 399.941 296.415C409.652 295.472 419.792 292.162 426.537 284.757C428.201 282.93 429.208 280.582 430.81 278.68L431.02 278.438Z"/>
	<path fill="#282F3E" transform="scale(0.666667 0.666667)" d="M420.829 499.312C421.602 499.543 421.931 499.919 422.547 500.438C424.578 504.584 424.102 510.796 424.683 515.418L428.121 539.437L436.687 577.63L442.653 597.73L445.957 607.856C446.715 610.134 447.656 612.375 447.407 614.812L446.158 614.812C445.686 614.486 445.32 614.151 444.963 613.7C442.521 610.62 440.947 606.783 439.531 603.147C437.037 596.739 435.179 590.214 433.359 583.591C428.861 567.219 424.914 550.776 422.287 533.99L419.912 512.191C419.673 509.021 418.937 505.199 419.437 502.058C419.639 500.788 419.753 500.065 420.829 499.312Z"/>
	<path fill="#282F3E" transform="scale(0.666667 0.666667)" d="M679.549 590.812C680.028 590.667 680.319 590.68 680.812 590.697C681.777 592.607 681.585 595.11 681.248 597.182C679.769 606.266 676.249 615.077 673.368 623.781L659.35 668.767C664.437 666.881 667.258 662.157 670.669 658.29C671.529 657.316 672.464 656.041 673.776 655.976C674.038 656.517 674.072 656.524 674.226 657.188C674.762 659.494 672.696 663.44 671.457 665.363C668.205 670.412 662.44 675.494 656.439 676.662L656.029 676.737L649.072 698.54L644.649 709.733C643.821 711.748 643.013 714.154 641.743 715.933C641.073 716.871 640.329 717.395 639.188 717.603C639.04 717.3 638.964 717.19 638.918 716.812C638.545 713.766 640.756 708.696 641.7 705.664L660.799 648.563L670.665 617.296L675.127 602.731C676.283 598.847 677.149 594.098 679.549 590.812Z"/>
	<path fill="#282F3E" transform="scale(0.666667 0.666667)" d="M471.819 619.898C475.758 619.48 479.9 620.228 483.806 620.758L494.039 621.862L529.317 625.111L602.797 629.991L630.682 631.607L644.733 632.138C646.583 632.299 648.67 632.324 650.433 632.928C651.313 633.23 651.036 632.988 651.402 633.75C649.826 634.939 647.032 634.887 645.094 635.09C639.625 635.748 633.594 634.927 628.097 634.658L606.188 633.78L520.788 628.67L485.15 625.694C478.132 624.902 471.53 624.384 464.661 622.596L471.819 619.898Z"/>
	<path fill="#282F3E" transform="scale(0.666667 0.666667)" d="M313.582 380.062L314.108 379.926C316.122 380.651 322.145 389.451 324.31 391.652C328.702 396.116 333.622 400.314 338.905 403.688C360.841 417.696 388.837 424.13 412.875 411.354C417.623 408.831 422.602 405.47 426.407 401.654C428.687 399.368 430.82 396.816 432.761 394.233C434.197 392.322 438.556 384.868 440.227 383.812C440.504 383.637 440.867 383.671 441.188 383.601L441.892 384.188C442.403 385.457 441.901 386.59 441.55 387.842C439.154 395.547 434.937 402.439 429.133 408.047C415.697 421.03 396.218 424.437 378.222 424.114C358.751 423.763 338.246 415.798 324.696 401.686C319.134 395.892 313.422 388.493 313.582 380.062Z"/>
	<path fill="#282F3E" transform="scale(0.666667 0.666667)" d="M473.658 562.58C486.154 562.19 498.935 563.247 511.406 564.04L562.688 567.138L627.375 571.495C640.461 572.478 653.97 572.916 666.929 575.043C670.806 575.68 675.996 576.626 678.938 579.331L678.938 580.057L675.568 580.233L605.521 575.346L536.229 570.552L499.297 568.489C492.08 568.267 484.2 569.163 477.102 567.988C473.673 567.42 471.336 565.629 468.863 563.347C470.474 563.264 472.075 562.882 473.658 562.58Z"/>
	<path fill="#282F3E" transform="scale(0.666667 0.666667)" d="M479.202 404.438C481.536 403.906 484.893 404.159 487.194 404.791C497.613 407.655 506.452 413.354 514.951 419.895C521.273 424.76 526.992 430.216 532.584 435.89C554.111 457.736 570.424 483.944 582.8 511.911C585.288 517.535 587.794 523.211 589.474 529.136C590.046 531.154 590.812 533.399 590.983 535.5C591.107 537.024 591.074 537.4 590.062 538.512C589.016 538.405 588.413 538.081 587.789 537.229C585.797 534.511 584.379 530.897 583.072 527.795L576.541 512.143C571.6 501.25 565.745 490.839 559.352 480.737C544.027 456.523 525.969 433.88 501.43 418.504C496.065 415.142 490.315 412.546 484.705 409.635C482.86 408.677 479.831 407.514 478.38 406.064C477.96 405.645 478.121 405.739 478.166 405.023L479.202 404.438Z"/>
	<path fill="#282F3E" transform="scale(0.666667 0.666667)" d="M539.092 130.688C540.422 130.554 541.462 130.684 542.752 131.043L543.375 131.223C548.4 132.644 553.463 136.031 557.812 138.901C600.877 167.315 635.378 204.806 664.472 247.125C668.781 253.392 673.524 259.57 676.927 266.393C677.967 268.479 679.058 270.308 679.535 272.625L679.125 273.084L677.767 272.438C671.534 268.505 667.165 260.329 662.868 254.438L646.113 231.783L625.352 206.283C612.345 191.013 597.9 177.126 582.384 164.423C573.769 157.369 564.698 150.871 555.276 144.938C550.084 141.667 544.481 138.837 539.484 135.296C538.193 134.381 537.266 133.84 536.658 132.375C537.566 131.259 537.805 131.172 539.092 130.688Z"/>
	<path fill="#282F3E" transform="scale(0.666667 0.666667)" d="M299.086 634.608C305.737 634.007 312.376 634.513 318.334 637.724C319.698 638.46 321.148 639.784 321.336 641.426C321.451 642.431 320.94 643.575 320.48 644.438C316.957 651.035 308.73 654.828 303.449 659.99C299.223 664.121 295.149 668.877 291.842 673.766C284.081 685.239 279.291 699.934 280.567 713.91C281.208 720.932 283.068 727.725 284.393 734.625L283.875 735.272C283.164 735.225 282.445 735.152 281.878 734.664C280.954 733.869 280.164 732.374 279.562 731.312C277.163 727.078 275.778 722.235 275.097 717.428C272.315 697.797 281.057 675.825 294.648 661.794C297.005 659.361 299.805 657.312 302.321 655.043C306.503 651.27 310.681 646.801 314.081 642.312L307.675 640.743C304.578 640.308 300.886 640.104 297.816 640.702C295.132 641.224 292.344 641.678 289.746 642.537C279.924 645.785 270.56 652.492 263.208 659.638C250.631 671.863 239.262 689.486 236.777 707.115C235.943 713.026 236.475 719.785 236.408 725.774L234.047 722.584C229.962 715.801 230.945 706.809 232.725 699.439C237.411 680.031 250.117 661.238 265.875 649.09C267.927 647.507 269.941 645.759 272.159 644.418C279.176 640.176 286.546 636.64 294.713 635.263L299.086 634.608Z"/>
	<path fill="#282F3E" transform="scale(0.666667 0.666667)" d="M277.928 423.439C279.097 423.671 279.744 423.809 280.63 424.688C280.674 425.517 280.636 425.542 280.121 426.158C278.676 427.887 276.575 429.393 274.829 430.845L264.869 439.235C249.353 452.78 235.347 467.586 225.531 485.898C219.3 497.523 214.633 509.729 210.403 522.198C203.993 541.094 199.062 560.284 194.308 579.649L190.693 596.996C189.788 601.893 189.976 608.706 187.332 612.938C186.72 613.441 186.57 613.359 185.812 613.456C184.965 612.784 184.932 612.559 184.699 611.484C184.239 609.353 184.462 606.688 184.556 604.517C184.845 597.81 186.192 591.172 187.355 584.576C191.754 559.636 196.874 533.827 205.656 510.04C210.042 498.161 215.793 486.407 222.562 475.702C230.356 463.376 239.359 452.139 249.644 441.803C255.977 435.439 262.89 429.103 271.157 425.373C273.293 424.409 275.649 423.948 277.928 423.439Z"/>
	<path fill="#282F3E" transform="scale(0.666667 0.666667)" d="M455.78 237.188C456.389 237.14 456.639 237.402 457.167 237.685C458.619 239.803 459.756 242.118 460.423 244.606C463.143 254.765 462.7 265.36 462.128 275.777C461.462 287.9 460.243 299.744 457.346 311.562C452.206 332.529 440.781 352.18 421.923 363.483C405.759 373.173 383.826 374.325 365.896 369.772C338.449 362.804 316.587 340.618 301.195 317.738C297.337 312.004 294.076 305.761 290.54 299.816C289.422 297.896 288.526 295.989 288.04 293.812C288.558 292.896 288.98 292.762 289.875 292.241C291.688 292.764 293.419 295.542 294.553 297.069C297.129 300.537 299.198 304.307 301.55 307.917C306.798 315.97 312.327 324.144 318.698 331.347C330.597 344.798 344.787 356.435 362.001 362.265C379.272 368.115 398.803 368.428 415.371 360.135C444.522 345.544 454.436 310.937 456.72 280.859C457.196 274.587 457.747 268.344 457.45 262.044C457.237 257.519 456.643 252.944 456.103 248.445C455.765 245.623 454.446 240.171 455.538 237.597L455.78 237.188Z"/>
	<path fill="#282F3E" transform="scale(0.666667 0.666667)" d="M306.666 392.812L307.338 392.883C308.785 398.2 303.755 405.388 301.649 410C299.72 414.224 297.75 418.728 296.893 423.319C295.208 432.344 297.611 441.551 302.789 449.026C308.709 457.572 319.401 464.38 329.699 466.206L331.911 466.602C336.095 467.33 340.142 467.613 344.362 467.896C344.797 467.926 345.31 468.233 345.669 467.984C345.952 467.789 347.07 462.593 347.241 462C348.774 456.686 353.664 440.746 357.848 437.812C358.676 437.941 358.771 438.014 359.413 438.562C361 442.505 357.122 449.614 355.777 453.359C354.327 457.397 352.72 461.61 352.151 465.875L352.072 466.497C352.012 469.882 352.059 473.416 352.602 476.761C353.177 480.298 354.17 483.704 354.594 487.28C349.274 490.414 343.31 490.59 337.288 489.855C319.513 487.686 303.803 478.751 292.819 464.627C286.092 455.977 282.181 445.349 283.662 434.297C284.863 425.343 299.263 398.582 306.666 392.812Z"/>
	<path fill="#282F3E" transform="scale(0.666667 0.666667)" d="M448.965 387.562L449.483 387.577C450.595 387.744 451.965 388.816 452.815 389.494C456.11 392.128 458.842 395.654 461.442 398.964C471.002 411.139 474.261 425.622 472.5 440.812C471.475 449.66 466.409 459.36 460.07 465.562C452.029 473.43 442.865 475.015 432.001 474.737C421.923 474.48 413.834 470.424 407.882 462.277C404.717 457.944 402.225 453.132 399.148 448.743C395.925 444.149 392.09 440.289 388.247 436.235C385.629 439.856 383.601 443.938 382.192 448.176C380.647 452.822 380.007 457.68 379.876 462.563C379.703 469.064 380.87 476.416 382.081 482.812C382.641 485.771 383.218 489.342 384.686 492C385.275 493.067 385.625 493.992 386.812 494.318C387.774 493.384 388.365 491.996 388.513 490.668C388.916 487.079 387.83 483.027 387.408 479.438L385.696 462.621C385.505 459.633 384.896 456.514 386.673 453.938C388.038 453.261 388.046 453.337 389.438 453.67L389.852 454.015C390.671 454.794 390.874 456.242 391.032 457.312C391.62 461.299 391.205 465.36 391.574 469.361C392.172 475.835 393.523 482.238 393.932 488.749C394.124 491.815 393.494 495.157 391.364 497.497C390.037 498.955 388.295 500.216 386.25 500.233C384.362 500.248 382.84 499.003 381.643 497.683C374.761 490.097 373.393 470.292 373.906 460.325C374.312 452.464 376.602 442.691 382.797 437.329C385.012 435.412 387.915 433.929 390.922 434.279C402.506 435.629 406.208 450.417 412.277 457.965C414.307 460.489 416.719 462.211 420 462.593L420.191 462.188C418.603 460.727 416.328 459.713 415.212 457.875C415.161 456.56 415.295 455.903 416.18 454.859C416.38 454.622 417.121 454.015 417.385 453.938C418.537 453.599 422.196 454.523 423.567 454.698C428.578 455.336 433.047 455.765 438.094 455.069C446.072 453.969 452.332 450.279 457.173 443.811C461.505 438.021 463.643 431.254 462.565 424.014L462.463 423.375C461.191 415.043 457.296 407.803 453.167 400.591C451.529 397.729 449.648 394.755 448.679 391.584C448.198 390.007 448.223 389 448.965 387.562Z"/>
	<path fill="#282F3E" transform="scale(0.666667 0.666667)" d="M192.86 147.188L193.706 147.074C195.085 147.687 195.804 149.357 196.562 150.602C194.451 154.096 189.67 156.772 186.387 159.214L171.83 170.153L159.386 180.429C137.588 199.918 117.606 222.145 102.188 247.058C91.2863 264.672 82.2095 283.894 75.9708 303.662C63.2023 344.122 60.2613 387.213 64.0564 429.307C64.4053 433.177 64.1749 437.126 64.6438 440.967C65.6477 449.188 67.3514 457.543 69.0997 465.639C72.6102 481.894 77.1228 497.958 83.3237 513.411C93.2313 538.101 107.305 561.292 123.633 582.236L133.31 593.451C141.399 603.116 149.508 612.607 158.432 621.526C160.047 623.141 161.668 624.789 163.446 626.224C165.559 627.93 172.386 631.71 173.005 634.312L172.76 634.63C171.695 635.678 169.769 635.894 168.347 636.001C161.214 633.466 155.354 627.863 149.556 623.132C126.027 603.938 104.088 581.968 88.658 555.568C69.1929 522.264 57.8642 485.04 54.6686 446.625C53.3248 430.471 53.6566 414.141 54.209 397.963L54.7012 382.045C56.3701 358.871 60.3576 334.779 66.3616 312.331C76.1587 275.702 95.5518 240.782 119.73 211.688C130.029 199.294 141.516 187.908 153.438 177.099C165.468 166.192 178.79 155.312 192.86 147.188Z"/>
	<path fill="#282F3E" transform="scale(0.666667 0.666667)" d="M466.684 566.812C467.27 566.999 468.078 567.323 468.562 567.696C469.771 568.625 469.582 570.838 469.467 572.219C469.169 575.776 468.076 579.522 467.281 583.008L463.502 600L450.366 656.919L445.692 674.111C444.903 676.932 443.1 681.223 443.438 684.115C444.141 685.081 444.726 685.337 445.918 685.485C449.346 685.909 453.461 684.993 456.934 684.672C464.296 683.992 471.774 683.706 479.153 684.17C484.175 684.485 490.055 685.135 494.096 688.47C499.455 692.892 502.064 701.177 502.663 707.883C504.556 708.225 506.834 708.527 508.743 708.134C512.202 707.422 515.082 705.135 518.443 704.222L518.903 704.106C521.05 703.539 523.349 703.445 525.562 703.408C531.287 703.311 538.873 703.161 543.194 707.624C544.937 709.425 545.822 711.639 545.702 714.134C545.576 716.762 543.686 719.138 541.808 720.856L541.312 721.299L541.688 721.585L542.83 721.356C546.299 720.903 550.21 721.275 553.763 721.111L602.375 720.273L636.036 718.722C637.842 718.718 639.775 718.452 641.268 719.625C640.909 720.536 640.493 720.93 639.689 721.442C636.251 723.63 629.712 723.989 625.661 724.275L569.856 726.239L515.544 728.705L482.103 731.742C474.73 732.382 466.212 734.523 458.904 732.902L455.348 732.051C449.127 730.219 443.857 726.599 439.837 721.512C436.963 717.876 434.318 713.911 430.535 711.141C424.887 707.007 417.306 705.268 410.83 702.894C404.925 700.729 398.664 697.854 393.266 694.596C391.045 693.255 388.561 691.973 387.291 689.625L387.562 688.84C390.106 688.816 392.713 689.499 395.109 690.307C400.621 692.165 405.635 695.065 411.006 697.231C419.236 700.549 428.826 702.459 436.154 707.625C438.833 709.514 440.449 711.902 442.511 714.375C447.113 719.894 452.415 723.833 459.346 725.9C457.391 723.796 455.414 721.781 453.228 719.914C450.854 717.887 448.281 716.404 446.75 713.603L447 713.204C453.088 713.073 458.353 717.456 462.613 721.356C465.472 723.973 467.328 726.433 471.375 726.668L471.851 726.188C471.134 723.649 468.154 720.607 466.47 718.499C463.946 715.34 461.236 712.067 457.934 709.687C448.791 703.096 436.627 703.372 426.84 697.864C420.431 694.256 416.291 687.861 409.896 684.127C406.715 682.269 403.251 680.929 399.985 679.225C398.807 678.611 397.265 677.917 396.498 676.79C396.081 676.175 396.225 676.217 396.374 675.562C397.277 675.063 397.831 674.977 398.871 675.07C406.778 675.778 414.984 680.428 420.768 685.688C424.162 688.773 427.234 691.918 431.436 693.942C441.031 698.564 452.451 698.733 461.347 705.027C468.779 710.287 473.696 718.799 479.447 725.68L489.688 724.61C489.187 720.973 487.829 717.446 486.461 714.055C485.071 710.609 478.886 698.488 479.812 695.483C480.735 695.334 480.366 695.243 481.127 695.647C482.698 696.48 483.842 698.062 484.877 699.471C488.241 704.05 490.516 709.267 492.127 714.686C493.141 718.098 493.56 721.607 494.257 725.091C496.79 718.954 497.634 713.702 496.368 707.062C495.303 701.482 491.816 693.482 486.667 690.694C484.079 689.293 481.087 689.198 478.212 689.043C473.496 688.788 468.913 688.995 464.214 689.381C456.64 690.004 445.223 692.97 438.628 688.559C436.486 686.912 434.491 685.063 432.913 682.856C429.716 678.385 427.823 673.574 422.808 670.75C417.424 667.72 410.6 668.123 404.787 666.524C403.332 666.124 401.873 665.837 400.688 664.866C400.502 663.911 400.327 663.405 400.757 662.486C403.508 661.837 406.891 662.728 409.688 662.982C413.363 663.316 417.129 663.352 420.75 664.138C429.472 666.031 434.94 675.084 439.411 682.08C439.813 674.799 441.688 667.822 443.146 660.711C436.369 659.947 429.856 658.143 423.272 656.412C420.121 655.584 415.732 654.883 413.2 652.778C412.28 652.013 412.249 651.166 412.127 650.062L413.062 649.536C423.67 650.18 434.424 652.891 443.645 658.219L446.458 647.172L445.568 646.619C440.369 643.532 434.133 642.093 428.12 641.973C418.973 641.79 409.65 644.038 400.721 645.74L375.423 650.424C365.992 652.187 356.251 653.324 346.958 655.683C329.799 660.038 315.279 671.295 306.19 686.488C306.891 688.319 307.693 690.064 308.305 691.934C309.071 694.276 309.817 697.356 311.231 699.371C311.88 700.294 312.931 701.122 313.776 701.855L314.302 702.306C315.842 703.657 317.776 704.164 319.684 704.825C325.218 700.27 328.399 693.308 333.422 688.244C334.377 687.281 335.297 686.421 336.75 686.581C337.716 686.688 338.54 687.492 339.229 688.111C344.42 692.777 346.839 701.069 350.534 706.991C355.164 714.41 361.253 721.417 370.157 723.383L370.812 723.524C382.092 726.053 394.084 722.423 404.133 717.342C401.293 715.824 395.576 714.354 394.071 711.375C393.488 710.221 393.478 709.759 393.862 708.562L394.244 708.432C397.027 707.895 402.912 711.402 405.698 712.419C413.052 715.103 420.61 717.238 427.806 720.348C430.476 721.502 432.97 722.974 435.599 724.202L451.125 731.576C453.054 732.585 454.476 734.036 456.029 735.532C443.787 736.749 432.354 728.891 421.642 723.974C417.898 722.256 414.002 720.969 410.103 719.654C407.789 721.445 405.442 723.232 402.849 724.608C392.779 729.95 377.918 731.774 366.983 728.303C350.948 723.213 343.853 706.615 336.583 692.927C333.442 696.03 331.303 699.682 328.948 703.383C325.596 708.653 322.032 713.995 317.478 718.312C314.486 721.149 310.923 723.602 307.462 725.835L310.689 727.412C311.592 727.948 312.124 728.749 312.411 729.75L311.883 730.312C309.076 731.178 304.657 730.589 301.863 729.837C298.69 728.982 295.093 727.317 293.485 724.272C290.473 718.568 294.46 701.148 296.385 694.734C301.606 677.335 315.618 664.331 329.811 653.888C332.484 651.922 335.399 649.243 338.329 647.775C339.575 647.152 340.442 647.026 341.783 647.469C342.091 648.598 342.111 649.17 341.811 650.307C341.667 650.852 341.656 650.506 342.048 651.213L384.085 643.101C397.877 640.615 411.239 637.784 425.25 636.635C433.011 635.999 440.287 637.862 447.646 640.064L460.137 592.911L465.145 569.933C465.471 568.687 465.701 567.683 466.684 566.812ZM525.781 707.815L524.062 708.047C524.437 708.937 525.098 709.222 525.856 709.776C531.172 713.658 531.4 715.167 531.28 721.594L536.544 719.417C538.537 717.641 540.449 716.306 540.751 713.438C540.855 712.456 540.591 711.415 539.927 710.68C537.396 707.876 531.555 707.416 528 707.587L525.781 707.815ZM502.826 712.004C502.655 716.295 502.461 719.75 501.124 723.863C504.871 723.8 508.37 723.523 512.065 722.877L513.033 722.699C513.414 721.778 513.206 721.088 512.812 720.168C511.557 717.23 507.634 713.639 504.665 712.662L504.188 712.51L502.826 712.004ZM514.026 710.062L513.938 711.191C515.439 712.803 517.482 714.611 518.502 716.562C519.45 718.376 519.646 720.594 519.927 722.598C521.515 722.457 523.877 722.562 525.188 721.628C526.138 720.256 526.773 719.465 526.528 717.696C526.272 715.854 524.605 714.217 523.125 713.232C520.549 711.516 517.164 710.081 514.026 710.062Z"/>
	<path fill="#282F3E" transform="scale(0.666667 0.666667)" d="M411.525 33.915C420.446 33.6624 429.875 35.1363 438.153 38.5216C452.929 44.5641 464.147 55.1336 470.298 69.9322C475.013 81.2728 473.878 95.5848 469.141 106.749C462.603 122.16 450.848 133.862 435.303 140.049C426.808 143.43 417.976 144.782 408.938 145.677C390.714 147.483 371.598 147.006 353.614 143.356C340.221 140.637 326.906 136.119 314.222 131.062C305.225 127.476 297.346 122.141 288.523 118.327C292.287 137.81 289.686 159.359 278.622 176.052C276.882 178.676 274.909 181.18 272.941 183.637C272.472 184.223 271.111 185.782 271.076 186.469C271.011 187.757 271.627 189.747 271.878 191.04L274.494 203.516C274.938 205.481 275.652 207.799 275.228 209.802C274.784 211.903 272.724 213.366 271.039 214.501L270.56 214.821L275.825 215.68C280.189 215.976 283 214.63 287.076 213.584L298.333 210.979L319.5 206.639C329.78 204.842 340.284 203.547 350.711 203.018C356.259 202.737 361.861 202.961 367.398 202.497C374.978 201.862 382.323 199.844 390 199.761C392.686 199.732 394.436 198.259 396.938 197.522L409.403 194.439C425.846 190.448 443.688 188.66 460.59 188.529C464.463 188.498 468.698 188.252 472.52 188.879L473.062 188.974C474.463 189.198 475.553 189.263 476.605 190.312C477.633 191.338 477.481 192.718 477.336 194.062C477.056 196.658 476.209 199.378 475.561 201.902C473.157 211.266 469.301 222.5 461.594 228.884C460.026 230.183 456.883 232.565 454.796 232.316C452.23 232.009 450.119 233.229 447.794 234.199C445.399 235.198 443.022 236.137 440.534 236.88C433.196 239.07 425.662 239.112 418.1 239.762C420.792 243.514 423.571 248.349 424.447 252.931L424.549 253.5C424.791 254.787 424.922 255.835 424.615 257.132C424.123 259.21 422.813 260.525 421.014 261.605C415.606 264.85 407.934 263.344 402.144 262.073C401.863 265.475 401.132 268.666 399.181 271.517C396.021 276.13 389.858 279.237 384.444 280.226C378.325 281.344 369.96 281.211 364.735 277.397C362.587 275.829 361.498 273.66 361.064 271.104L360.978 270.562C360.551 267.971 361.093 265.371 361.451 262.794L365.786 241.488L364.338 243.188C362.708 245.132 360.875 246.532 358.758 247.915C351.719 252.515 342.015 253.515 333.818 253.748C328.913 253.888 323.899 253.831 319.078 252.829C309.949 250.931 303.524 245.654 298.415 238.024L291.993 227.491C292.106 229.768 292.13 232.397 292.798 234.584C293.902 238.196 297.352 242.02 297.457 245.726C297.49 246.859 296.994 247.759 296.236 248.57C294.836 250.069 293.036 250.742 291 250.786C289.491 250.818 288.316 250.47 287.322 249.296C285.909 247.628 285.068 244.812 284.181 242.812C280.901 235.42 277.73 228.282 271.876 222.549C267.524 218.287 260.073 215 253.924 215.325C248.47 215.614 243.867 219.32 240.498 223.312C236.862 227.62 236.072 234.361 236.641 239.761C237.931 252.006 246.665 264.949 256.075 272.495C263.627 278.552 273.511 284.044 283.567 282.855L284.25 282.767C286.679 282.478 292.258 280.237 294.252 280.996C294.363 281.439 294.402 281.469 294.354 282C294.229 283.393 293.239 284.622 292.243 285.511C289.112 288.304 284.917 288.537 280.924 288.384C266.873 287.843 254.097 279.646 244.822 269.568C236.734 260.78 229.282 247.636 229.929 235.276C230.322 227.777 232.484 221.347 238.198 216.281C236.122 214.442 233.819 212.632 231.938 210.598C227.737 206.057 224.224 200.838 220.574 195.857C210.506 182.118 200.03 166.495 198.572 149.062C198.163 144.176 199.249 137.91 200.553 133.175C205.345 115.78 218.911 97.4485 234.743 88.4579C243.388 83.549 252.852 80.3804 262.929 81.5244C266.607 81.9419 269.982 82.9781 273.525 83.9623C275.314 82.4006 276.49 79.3178 278.069 77.3798C284.531 69.4519 297.255 61.2954 307.594 60.4021C312.419 59.9853 318.373 59.643 322.852 61.7152C324.896 62.661 326.587 64.0945 328.282 65.546C331.163 62.6811 334.39 60.5102 337.685 58.165C359.203 42.8512 385.383 35.4299 411.525 33.915ZM451.334 193.277L431.092 195.927C427.848 196.357 422.455 196.48 419.625 198.019L419.243 198.562C422.341 201.389 426.05 201.089 428.175 205.312C428.096 207.177 427.288 207.905 425.927 209.165C424.079 210.877 421.107 212.338 419.621 214.254C420.673 216.1 422.308 218.251 421.792 220.464C420.964 220.994 420.805 221.107 419.775 220.894C418.098 220.549 416.087 218.954 415.226 217.491C414.411 216.106 413.817 214.624 414.169 213.004C414.675 210.668 417.902 208.48 419.666 207.059C420.174 206.65 419.994 206.795 420.553 206.211C417.487 204.201 414.511 202.284 412.407 199.205C409.811 199.759 407.161 200.223 404.668 201.149C403.637 201.76 402.709 201.988 402.401 203.25C402.03 204.77 402.534 207.399 402.923 208.921C404.311 214.354 406.701 219.522 410.407 223.773C415.355 229.448 422.606 232.381 430.029 232.904C436.174 233.337 441.619 231.539 446.232 227.438C452.494 221.87 455.283 212.037 455.634 203.897C455.796 200.126 455.482 197.209 454.312 193.596C453.27 193.037 452.502 193.234 451.334 193.277ZM359.139 208.267C356.568 208.832 352.049 212.056 350.606 214.237C350.138 214.945 350.001 215.541 350.174 216.375C350.862 219.675 354.543 222.623 352.6 226.127C352.227 226.801 352.026 227.006 351.294 227.147C349.63 227.467 347.248 226.543 345.955 225.498C344.544 224.358 344.513 222.668 344.414 220.999L344.189 216.895C336.677 222.321 329.083 227.314 320.921 231.716C316.056 234.339 310.645 236.508 306.018 239.438C306.449 240.479 307.198 240.969 308.03 241.696C318.935 249.985 329.827 250.1 342.856 248.281C349.568 247.344 356.845 244.279 360.986 238.703C365.268 232.938 366.57 225.826 366.246 218.754C366.083 215.192 365.327 211.664 365.134 208.107L359.139 208.267ZM377.657 216.403C375.663 217.6 374.11 218.845 372.464 220.487C372.467 224.046 372.644 227.763 372.204 231.297L368.692 253.61C367.848 258.261 366.547 263.249 366.401 267.976C366.356 269.463 366.491 270.706 367.152 272.062C371.078 275.494 377.15 275.555 382.125 275.17L384.842 274.737C388.715 273.732 392.695 272.08 394.811 268.524L396.703 264.814C391.576 255.757 387.003 246.207 384.495 236.053L382.517 226.789L381.53 219.46C381.464 218.937 381.416 217.315 381.188 216.892C381.068 216.669 380.812 216.554 380.625 216.385L377.657 216.403ZM447.924 57.4237C448.938 61.2946 450.285 65.1021 451.075 69.0234C453.503 81.0654 453.195 94.6082 446.843 105.432C439.244 118.38 426.269 126.585 411.9 130.197C395.293 134.371 378.114 130.982 361.946 126.528C359.213 125.775 356.016 125.319 353.438 124.309C352.664 124.006 352.009 123.933 351.184 123.938L351.188 124.691L351.748 124.877L352.3 125.159C353.584 125.802 354.726 125.562 355.785 126.653C356.338 127.222 356.803 127.588 357.519 127.95C363.491 131.111 370.175 133.058 376.731 134.589C382.052 135.831 387.525 136.919 393.002 137.116C394.419 137.167 395.919 137.14 397.312 136.853C399.663 136.369 401.483 135.176 403.873 136.17C405.264 136.749 406.384 136.24 407.812 136.141C409.439 136.029 411.02 136.189 412.672 135.975C417.622 135.333 422.718 133.617 427.225 131.524C439.766 125.7 448.761 115.227 453.406 102.295C457.641 90.5071 458.323 76.6269 452.925 65.1397C451.641 62.407 449.888 59.712 447.924 57.4237ZM345.836 207.48L325.153 211.032C316.355 212.571 307.971 213.869 299.428 216.59C299.176 217.67 297.816 221.567 297.962 222.333C298.105 223.088 299.21 224.613 299.597 225.354C300.669 227.406 301.513 229.657 302.724 231.623L303.455 232.741L304.688 233.6C310.693 232.237 316.785 228.923 322.094 225.848C331.801 220.227 340.785 213.502 350.208 207.418L345.836 207.48ZM271.907 106.399C272.758 110.73 273.89 115.085 274.499 119.453C276.305 132.408 276.01 144.413 274.103 157.337C273.202 163.441 271.637 169.424 271.038 175.566L275.582 169.689C281.543 158.346 284.725 147.056 284.557 134.136C284.499 129.76 284.135 124.95 282.846 120.748C280.997 114.718 276.867 110.089 271.907 106.399ZM388.351 218.078L401.791 256.5C406.352 256.94 411.689 258.007 416.148 256.688C416.635 255.615 416.688 254.941 416.242 253.823C414.824 250.267 411.98 246.543 409.912 243.278C405.809 236.802 402.02 229.525 396.719 223.968C394.193 221.321 391.685 219.562 388.351 218.078ZM310.534 66.4722C303.826 68.0382 298.224 70.2227 292.59 74.2191C291.027 75.3281 288.813 77.0245 287.887 78.6808C287.395 79.5609 287.508 80.1028 287.812 81.0015C290.199 81.3907 294.505 79.4038 296.754 78.2993L323.958 67.3284C319.5 66.3107 315.092 65.9874 310.534 66.4722ZM461.108 194.395C462.512 205.826 459.96 217.012 453.734 226.77C455.607 225.271 457.539 223.829 459.154 222.046C466.223 213.597 467.481 204.4 470.295 194.162L461.108 194.395ZM255.769 88.6193C240.529 91.0666 227.605 100.415 218.708 112.878L217.684 114.469L224.009 109.728C234.019 100.778 245.342 93.0809 258.788 90.7294C259.98 90.521 264.558 90.1987 264.938 89.3944C262.692 87.9044 258.359 88.224 255.769 88.6193ZM380.879 204.861C376.981 205.472 372.541 205.917 368.769 207.074L371.407 214.061C375.703 212.039 378.6 211.476 383.331 211.49L382.791 204.807C382.061 204.65 381.606 204.706 380.879 204.861ZM396.313 203.812C393.606 204.557 390.802 205.437 387.999 205.688C388.279 207.383 388.446 209.183 389.083 210.784L394.338 213.379L399.633 216.359L397.507 203.812C396.608 203.73 397.005 203.706 396.313 203.812Z"/>
</svg>
